<svg width="51" height="43" viewBox="0 0 51 43" fill="none" xmlns="http://www.w3.org/2000/svg">
<g clip-path="url(#clip0_1081_530)">
<path d="M27.6609 38.3295H23.3393C23.1468 38.3295 22.9621 38.2538 22.8259 38.1191C22.6898 37.9843 22.6133 37.8015 22.6133 37.6109V2.90171C22.6133 2.14392 22.9174 1.41716 23.4588 0.881311C24.0002 0.345467 24.7345 0.0444336 25.5001 0.0444336C26.2657 0.0444336 27 0.345467 27.5414 0.881311C28.0828 1.41716 28.3869 2.14392 28.3869 2.90171V37.6116C28.3867 37.8021 28.3101 37.9847 28.174 38.1193C28.0379 38.2539 27.8533 38.3295 27.6609 38.3295ZM24.0654 36.8923H26.9348V2.90171C26.9348 2.5251 26.7836 2.16392 26.5146 1.89761C26.2455 1.63131 25.8806 1.4817 25.5001 1.4817C25.1196 1.4817 24.7547 1.63131 24.4856 1.89761C24.2166 2.16392 24.0654 2.5251 24.0654 2.90171V36.8923Z" fill="#295C7A"/>
<path d="M8.00214 9.6787H5.50957C4.91819 9.6682 4.35462 9.42831 3.94015 9.01065C3.52568 8.593 3.29346 8.03098 3.29346 7.44555C3.29346 6.86013 3.52568 6.2981 3.94015 5.88045C4.35462 5.4628 4.91819 5.2229 5.50957 5.2124H7.64855C7.84111 5.2124 8.02578 5.28812 8.16195 5.42288C8.29811 5.55765 8.37461 5.74044 8.37461 5.93103C8.37461 6.12163 8.29811 6.30441 8.16195 6.43918C8.02578 6.57395 7.84111 6.64967 7.64855 6.64967H5.50957C5.30049 6.65588 5.10208 6.74246 4.95641 6.89104C4.81074 7.03962 4.72927 7.23851 4.72927 7.44555C4.72927 7.65259 4.81074 7.85148 4.95641 8.00006C5.10208 8.14864 5.30049 8.23522 5.50957 8.24144H8.00214C8.1947 8.24144 8.37938 8.31715 8.51554 8.45192C8.6517 8.58669 8.7282 8.76947 8.7282 8.96007C8.7282 9.15066 8.6517 9.33345 8.51554 9.46822C8.37938 9.60299 8.1947 9.6787 8.00214 9.6787Z" fill="#295C7A"/>
<path d="M23.3394 9.6787H12.394C12.2015 9.6787 12.0168 9.60299 11.8806 9.46822C11.7445 9.33345 11.668 9.15066 11.668 8.96007C11.668 8.76947 11.7445 8.58669 11.8806 8.45192C12.0168 8.31715 12.2015 8.24144 12.394 8.24144H22.6133V6.64967H12.7469C12.5543 6.64967 12.3697 6.57395 12.2335 6.43918C12.0973 6.30441 12.0208 6.12163 12.0208 5.93103C12.0208 5.74044 12.0973 5.55765 12.2335 5.42288C12.3697 5.28812 12.5543 5.2124 12.7469 5.2124H23.3394C23.5319 5.2124 23.7166 5.28812 23.8528 5.42288C23.9889 5.55765 24.0654 5.74044 24.0654 5.93103V8.96007C24.0654 9.15066 23.9889 9.33345 23.8528 9.46822C23.7166 9.60299 23.5319 9.6787 23.3394 9.6787Z" fill="#295C7A"/>
<path d="M38.4477 9.6787H27.6606C27.4681 9.6787 27.2834 9.60299 27.1472 9.46822C27.0111 9.33345 26.9346 9.15066 26.9346 8.96007V5.93103C26.9346 5.74044 27.0111 5.55765 27.1472 5.42288C27.2834 5.28812 27.4681 5.2124 27.6606 5.2124H38.0948C38.2874 5.2124 38.4721 5.28812 38.6082 5.42288C38.7444 5.55765 38.8209 5.74044 38.8209 5.93103C38.8209 6.12163 38.7444 6.30441 38.6082 6.43918C38.4721 6.57395 38.2874 6.64967 38.0948 6.64967H28.3867V8.24144H38.4477C38.6403 8.24144 38.8249 8.31715 38.9611 8.45192C39.0973 8.58669 39.1738 8.76947 39.1738 8.96007C39.1738 9.15066 39.0973 9.33345 38.9611 9.46822C38.8249 9.60299 38.6403 9.6787 38.4477 9.6787Z" fill="#295C7A"/>
<path d="M45.4833 9.6787H42.998C42.8055 9.6787 42.6208 9.60299 42.4846 9.46822C42.3485 9.33345 42.272 9.15066 42.272 8.96007C42.272 8.76947 42.3485 8.58669 42.4846 8.45192C42.6208 8.31715 42.8055 8.24144 42.998 8.24144H45.4833C45.6924 8.23522 45.8908 8.14864 46.0365 8.00006C46.1822 7.85148 46.2636 7.65259 46.2636 7.44555C46.2636 7.23851 46.1822 7.03962 46.0365 6.89104C45.8908 6.74246 45.6924 6.65588 45.4833 6.64967H43.356C43.1634 6.64967 42.9787 6.57395 42.8426 6.43918C42.7064 6.30441 42.6299 6.12163 42.6299 5.93103C42.6299 5.74044 42.7064 5.55765 42.8426 5.42288C42.9787 5.28812 43.1634 5.2124 43.356 5.2124H45.4833C46.0747 5.2229 46.6383 5.4628 47.0528 5.88045C47.4672 6.2981 47.6995 6.86013 47.6995 7.44555C47.6995 8.03098 47.4672 8.593 47.0528 9.01065C46.6383 9.42831 46.0747 9.6682 45.4833 9.6787Z" fill="#295C7A"/>
<path d="M34.6954 42.9546H16.3043C16.1941 42.9546 16.0853 42.9297 15.9863 42.8818C15.8872 42.834 15.8005 42.7645 15.7326 42.6785C15.6648 42.5926 15.6175 42.4925 15.5946 42.3858C15.5716 42.2791 15.5735 42.1687 15.6 42.0628C15.8994 40.6416 16.6703 39.3603 17.7902 38.4227C18.9101 37.4852 20.3146 36.9452 21.7802 36.8887H29.2194C30.6851 36.9452 32.0896 37.4852 33.2095 38.4227C34.3293 39.3603 35.1003 40.6416 35.3997 42.0628C35.4262 42.1687 35.4281 42.2791 35.4051 42.3858C35.3821 42.4925 35.3349 42.5926 35.267 42.6785C35.1992 42.7645 35.1124 42.834 35.0134 42.8818C34.9143 42.9297 34.8056 42.9546 34.6954 42.9546ZM17.3084 41.5174H33.6912C33.3456 40.6094 32.7369 39.8225 31.9415 39.2554C31.146 38.6883 30.1991 38.3663 29.2194 38.3295H21.7802C20.8006 38.3663 19.8537 38.6883 19.0582 39.2554C18.2627 39.8225 17.654 40.6094 17.3084 41.5174Z" fill="#295C7A"/>
<path d="M36.6618 42.9548H14.3384C14.1458 42.9548 13.9611 42.8791 13.825 42.7444C13.6888 42.6096 13.6123 42.4268 13.6123 42.2362C13.6123 42.0456 13.6888 41.8628 13.825 41.7281C13.9611 41.5933 14.1458 41.5176 14.3384 41.5176H36.6618C36.8543 41.5176 37.039 41.5933 37.1752 41.7281C37.3113 41.8628 37.3878 42.0456 37.3878 42.2362C37.3878 42.4268 37.3113 42.6096 37.1752 42.7444C37.039 42.8791 36.8543 42.9548 36.6618 42.9548Z" fill="#295C7A"/>
<path d="M50.186 27.6973H31.4238C31.3023 27.6974 31.1827 27.6673 31.076 27.6098C30.9692 27.5522 30.8788 27.469 30.813 27.3679C30.7471 27.2668 30.708 27.1509 30.6992 27.0309C30.6904 26.911 30.7121 26.7907 30.7624 26.6812L38.7345 9.30901C38.7738 9.22283 38.8299 9.14516 38.8995 9.08045C38.9691 9.01574 39.051 8.96527 39.1404 8.93193C39.2297 8.89858 39.3249 8.88302 39.4203 8.88613C39.5158 8.88924 39.6097 8.91097 39.6967 8.95006C39.7836 8.98915 39.862 9.04484 39.9271 9.11394C39.9923 9.18304 40.0431 9.26419 40.0765 9.35274C40.11 9.4413 40.1254 9.53551 40.122 9.62999C40.1186 9.72447 40.0964 9.81735 40.0567 9.90332L32.5507 26.2601H49.0562L41.5567 9.90332C41.5174 9.81735 41.4955 9.72454 41.4923 9.63019C41.4892 9.53585 41.5049 9.44182 41.5384 9.35347C41.572 9.26511 41.6228 9.18417 41.688 9.11526C41.7532 9.04635 41.8315 8.99083 41.9183 8.95185C42.0052 8.91288 42.0989 8.89122 42.1943 8.88811C42.2896 8.885 42.3846 8.9005 42.4739 8.93374C42.5631 8.96697 42.6449 9.01728 42.7145 9.08179C42.7841 9.1463 42.8402 9.22376 42.8796 9.30973L50.8438 26.6819C50.8938 26.7911 50.9154 26.911 50.9067 27.0306C50.898 27.1501 50.8591 27.2657 50.7937 27.3666C50.7283 27.4675 50.6385 27.5507 50.5323 27.6085C50.4262 27.6662 50.3071 27.6968 50.186 27.6973Z" fill="#295C7A"/>
<path d="M40.8793 36.8635H40.7282C34.9147 36.8635 30.6948 32.7069 30.6948 26.9794C30.6948 26.7888 30.7713 26.606 30.9075 26.4712C31.0436 26.3365 31.2283 26.2607 31.4209 26.2607H50.1859C50.3784 26.2607 50.5631 26.3365 50.6993 26.4712C50.8354 26.606 50.9119 26.7888 50.9119 26.9794C50.9119 32.7105 46.6921 36.8635 40.8793 36.8635ZM32.1724 27.698C32.4962 32.2843 35.9224 35.4262 40.7282 35.4262H40.8793C45.6843 35.4262 49.1113 32.2843 49.4344 27.698H32.1724Z" fill="#295C7A"/>
<path d="M40.8039 10.7033C40.0979 10.7034 39.4077 10.4963 38.8206 10.1082C38.2336 9.72006 37.776 9.16833 37.5057 8.52276C37.2355 7.8772 37.1647 7.16681 37.3024 6.48145C37.4401 5.79609 37.7801 5.16654 38.2793 4.67243C38.7785 4.17831 39.4146 3.84183 40.107 3.70554C40.7995 3.56925 41.5172 3.63927 42.1694 3.90675C42.8217 4.17423 43.3791 4.62715 43.7712 5.20822C44.1634 5.7893 44.3726 6.47243 44.3725 7.17121C44.3713 8.10762 43.995 9.00536 43.326 9.6675C42.657 10.3296 41.75 10.7021 40.8039 10.7033ZM40.8039 5.07568C40.3851 5.07554 39.9757 5.19832 39.6275 5.42849C39.2792 5.65866 39.0077 5.98589 38.8474 6.36879C38.687 6.75168 38.645 7.17304 38.7266 7.57959C38.8082 7.98613 39.0098 8.35958 39.3059 8.65272C39.6019 8.94585 39.9792 9.1455 40.3899 9.22642C40.8006 9.30733 41.2263 9.26588 41.6132 9.10729C42.0001 8.94871 42.3308 8.68012 42.5635 8.3355C42.7962 7.99087 42.9204 7.5857 42.9204 7.17121C42.9198 6.61574 42.6966 6.08317 42.2999 5.69033C41.9031 5.29748 41.3651 5.07644 40.8039 5.07568Z" fill="#295C7A"/>
<path d="M19.5751 27.6974H0.813749C0.692267 27.6974 0.572735 27.6671 0.466102 27.6095C0.359469 27.5519 0.269145 27.4688 0.203401 27.3677C0.137658 27.2666 0.0985973 27.1507 0.089798 27.0308C0.0809986 26.9109 0.102741 26.7907 0.153035 26.6812L8.12662 9.30905C8.20624 9.13542 8.35229 9.00021 8.53264 8.93317C8.71299 8.86612 8.91286 8.87273 9.08828 8.95154C9.26371 9.03035 9.40032 9.1749 9.46806 9.3534C9.5358 9.53191 9.52912 9.72973 9.4495 9.90336L1.9435 26.2601H18.449L10.9495 9.90336C10.9078 9.81712 10.8839 9.7235 10.8793 9.628C10.8746 9.5325 10.8892 9.43704 10.9222 9.3472C10.9553 9.25736 11.0062 9.17495 11.0718 9.10481C11.1374 9.03466 11.2166 8.97819 11.3045 8.93869C11.3925 8.8992 11.4876 8.87747 11.5841 8.87479C11.6807 8.87212 11.7768 8.88854 11.8669 8.9231C11.957 8.95765 12.0392 9.00965 12.1087 9.07605C12.1782 9.14245 12.2336 9.22191 12.2717 9.30977L20.2366 26.682C20.2867 26.7914 20.3083 26.9116 20.2994 27.0315C20.2905 27.1514 20.2514 27.2671 20.1855 27.3682C20.1197 27.4692 20.0294 27.5523 19.9227 27.6098C19.8161 27.6673 19.6966 27.6974 19.5751 27.6974Z" fill="#295C7A"/>
<path d="M10.2716 36.8635H10.1206C4.30775 36.8635 0.0878906 32.7105 0.0878906 26.9794C0.0878906 26.7888 0.164386 26.606 0.300548 26.4712C0.436711 26.3365 0.621387 26.2607 0.81395 26.2607H19.579C19.7715 26.2607 19.9562 26.3365 20.0924 26.4712C20.2285 26.606 20.305 26.7888 20.305 26.9794C20.305 32.7105 16.0852 36.8635 10.2716 36.8635ZM1.56542 27.698C1.88852 32.2843 5.31552 35.4262 10.1206 35.4262H10.2716C15.0774 35.4262 18.5037 32.2843 18.8275 27.698H1.56542Z" fill="#295C7A"/>
<path d="M10.1963 10.7033C9.49029 10.7033 8.80017 10.4961 8.21319 10.1078C7.6262 9.71963 7.16871 9.16784 6.89858 8.52226C6.62845 7.87669 6.55781 7.16633 6.69559 6.48101C6.83337 5.7957 7.17339 5.16621 7.67264 4.67217C8.17189 4.17813 8.80794 3.84172 9.50037 3.70549C10.1928 3.56926 10.9105 3.63932 11.5627 3.90682C12.2149 4.17432 12.7723 4.62724 13.1644 5.2083C13.5565 5.78936 13.7657 6.47246 13.7656 7.17121C13.7644 8.10775 13.388 9.00559 12.7188 9.66775C12.0497 10.3299 11.1425 10.7023 10.1963 10.7033ZM10.1963 5.07568C9.77752 5.07568 9.36819 5.19858 9.02002 5.42884C8.67185 5.6591 8.40048 5.98638 8.24023 6.36928C8.07999 6.75219 8.03806 7.17353 8.11975 7.58003C8.20145 7.98652 8.40309 8.35991 8.69918 8.65297C8.99528 8.94604 9.37253 9.14562 9.78322 9.22647C10.1939 9.30733 10.6196 9.26583 11.0065 9.10723C11.3933 8.94862 11.724 8.68003 11.9566 8.33542C12.1893 7.99081 12.3135 7.58567 12.3135 7.17121C12.3129 6.61561 12.0896 6.08294 11.6927 5.69008C11.2958 5.29721 10.7576 5.07625 10.1963 5.07568Z" fill="#295C7A"/>
</g>
<defs>
<clipPath id="clip0_1081_530">
<rect width="51" height="43" fill="white"/>
</clipPath>
</defs>
</svg>
