<svg width="16" height="15" viewBox="0 0 16 15" fill="none" xmlns="http://www.w3.org/2000/svg">
<g clip-path="url(#clip0_964_12578)">
<path d="M5.33327 14.9336C5.92237 14.9336 6.39993 14.4561 6.39993 13.867C6.39993 13.2779 5.92237 12.8003 5.33327 12.8003C4.74416 12.8003 4.2666 13.2779 4.2666 13.867C4.2666 14.4561 4.74416 14.9336 5.33327 14.9336Z" fill="#737373"/>
<path d="M12.8001 14.9336C13.3892 14.9336 13.8667 14.4561 13.8667 13.867C13.8667 13.2779 13.3892 12.8003 12.8001 12.8003C12.211 12.8003 11.7334 13.2779 11.7334 13.867C11.7334 14.4561 12.211 14.9336 12.8001 14.9336Z" fill="#737373"/>
<path d="M14.9333 2.66678H3.104L2.66667 0.426775C2.64173 0.304495 2.57471 0.19483 2.47726 0.11687C2.37981 0.0389102 2.25811 -0.00240773 2.13333 0.000108501H0V1.06678H1.696L3.73333 11.3068C3.75827 11.4291 3.82529 11.5387 3.92274 11.6167C4.02019 11.6946 4.1419 11.736 4.26667 11.7334H13.8667V10.6668H4.704L4.26667 8.53344H13.8667C13.99 8.53646 14.1105 8.49665 14.2077 8.4208C14.305 8.34496 14.3729 8.23775 14.4 8.11744L15.4667 3.31744C15.4845 3.23831 15.4841 3.15614 15.4655 3.07719C15.4468 2.99824 15.4103 2.9246 15.3589 2.86185C15.3075 2.79911 15.2424 2.74893 15.1687 2.71512C15.0949 2.68132 15.0144 2.66478 14.9333 2.66678ZM13.44 7.46678H4.064L3.31733 3.73344H14.2667L13.44 7.46678Z" fill="#737373"/>
</g>
<defs>
<clipPath id="clip0_964_12578">
<rect width="16" height="14.9334" fill="white"/>
</clipPath>
</defs>
</svg>
