<svg width="53" height="53" viewBox="0 0 53 53" fill="none" xmlns="http://www.w3.org/2000/svg">
<path d="M52.0398 43.4893C51.6882 42.9445 51.2688 42.4627 50.7929 42.0574L45.9562 37.8388C45.9185 37.7821 45.8748 37.7282 45.8248 37.6782C45.7407 37.5943 45.6455 37.5288 45.5443 37.4797L42.6192 34.9286L29.0804 23.1184C29.6346 22.539 29.9398 21.7813 29.9398 20.9757C29.9398 20.1457 29.6167 19.3657 29.0295 18.7786C28.7734 18.5228 28.4823 18.3216 28.1712 18.1743L29.4238 16.9218C29.7739 17.0149 30.1336 17.0625 30.4936 17.0625C31.5537 17.0624 32.6139 16.6589 33.4209 15.8519C34.2033 15.0696 34.6341 14.0298 34.6341 12.9239C34.6341 11.8181 34.2033 10.7783 33.421 9.99599L24.6379 1.2131C23.8557 0.430832 22.8158 0 21.7096 0C20.6039 0 19.5643 0.430832 18.7822 1.2131C17.7011 2.29422 17.3452 3.82925 17.7122 5.21036L5.21531 17.7072C4.86998 17.6154 4.51068 17.5669 4.14362 17.5669C3.03724 17.5669 1.99784 17.9974 1.21619 18.779C-0.398236 20.3934 -0.398236 23.0203 1.21619 24.6349L9.99918 33.4179C10.8065 34.2252 11.8668 34.6288 12.9271 34.6288C13.9875 34.6288 15.0478 34.2252 15.8552 33.4179C16.9363 32.3367 17.2922 30.8018 16.9251 29.4207L18.1751 28.1706C18.3253 28.4843 18.5291 28.7737 18.7823 29.0268C19.3688 29.6133 20.1486 29.9364 20.9784 29.9364C21.7832 29.9364 22.5405 29.6318 23.1207 29.0782L37.5411 45.6462C37.5808 45.7084 37.6272 45.7675 37.6814 45.8217C37.7 45.8402 37.7196 45.8571 37.7392 45.8739L42.0362 50.811C42.1431 50.937 42.2572 51.0611 42.3758 51.1796C43.5559 52.3593 45.1148 52.9996 46.7514 52.9996C47.0399 52.9996 47.3311 52.9797 47.6227 52.9393C49.5718 52.6696 51.2563 51.5036 52.244 49.7399C53.3261 47.8069 53.2455 45.3529 52.0398 43.4893ZM20.2462 2.67702C20.6374 2.28583 21.1572 2.07031 21.7097 2.07031C22.2629 2.07031 22.7831 2.28583 23.1741 2.67702L31.9572 11.46C32.3484 11.8512 32.5638 12.3712 32.5638 12.924C32.5638 13.4769 32.3484 13.9969 31.9571 14.388C31.1502 15.1952 29.837 15.1952 29.0301 14.388L20.2467 5.60465C20.2465 5.60444 20.2464 5.60434 20.2462 5.60413C19.4391 4.79712 19.4391 3.48403 20.2462 2.67702ZM14.3912 31.954C13.584 32.7612 12.2703 32.7613 11.4631 31.954L2.68011 23.171C1.87279 22.3637 1.87279 21.0503 2.68011 20.2429C3.07057 19.8523 3.59043 19.6372 4.14362 19.6372C4.6967 19.6372 5.21624 19.8522 5.6066 20.2425L14.3911 29.027C15.1984 29.8339 15.1984 31.1471 14.3912 31.954ZM18.7495 24.6686L15.8551 27.5631L7.07114 18.7792L18.7822 7.06794L27.566 15.8519L24.6663 18.7516C24.6569 18.7605 24.6477 18.7692 24.6377 18.7791L18.7852 24.6318C18.7731 24.6437 18.7614 24.6561 18.7495 24.6686ZM22.4456 26.828C22.4435 26.8301 22.4416 26.8321 22.4395 26.8341L21.7105 27.5631C21.515 27.7585 21.2551 27.8662 20.9783 27.8662C20.7016 27.8662 20.4415 27.7585 20.2461 27.563C20.0503 27.3674 19.9426 27.1071 19.9426 26.8302C19.9426 26.5592 20.046 26.3043 20.2337 26.1119L26.1135 20.2321C26.5164 19.8402 27.168 19.8451 27.5662 20.2429C27.7618 20.4385 27.8696 20.6988 27.8696 20.9757C27.8696 21.2524 27.7622 21.5119 27.5661 21.7074L26.8414 22.4321C26.8364 22.437 26.8314 22.442 26.8266 22.4469L22.4456 26.828ZM24.5892 27.6122L27.6145 24.5868L40.4238 35.7598L35.7496 40.434L24.5892 27.6122ZM37.112 41.9994L41.9875 37.1238L43.5513 38.4878L38.4744 43.5649L37.112 41.9994ZM50.4378 48.7285C49.7697 49.9213 48.6402 50.7086 47.3389 50.8887C46.0406 51.0684 44.765 50.6408 43.8394 49.7156C43.7598 49.6361 43.6836 49.5531 43.6126 49.4691C43.6093 49.4651 43.6059 49.4612 43.6025 49.4574L39.8366 45.1302L45.115 39.8518L49.4368 43.6215C49.44 43.6244 49.4433 43.6272 49.4467 43.6301C49.7702 43.9051 50.0572 44.2354 50.3008 44.6129C51.0836 45.8224 51.1385 47.4766 50.4378 48.7285Z" fill="white"/>
</svg>
