<svg width="43" height="44" viewBox="0 0 43 44" fill="none" xmlns="http://www.w3.org/2000/svg">
<g clip-path="url(#clip0_1081_519)">
<path d="M14.2896 8.47656H6.59619C5.88419 8.47656 5.30713 9.05362 5.30713 9.76562C5.30713 10.4776 5.88419 11.0547 6.59619 11.0547H14.2896C15.0013 11.0547 15.5787 10.4776 15.5787 9.76562C15.5787 9.05362 15.0013 8.47656 14.2896 8.47656Z" fill="#295C7A"/>
<path d="M14.2896 13.6333H6.59619C5.88419 13.6333 5.30713 14.2104 5.30713 14.9224C5.30713 15.6344 5.88419 16.2114 6.59619 16.2114H14.2896C15.0013 16.2114 15.5787 15.6344 15.5787 14.9224C15.5787 14.2104 15.0013 13.6333 14.2896 13.6333Z" fill="#295C7A"/>
<path d="M14.2896 18.7896H6.59619C5.88419 18.7896 5.30713 19.3666 5.30713 20.0786C5.30713 20.7906 5.88419 21.3677 6.59619 21.3677H14.2896C15.0013 21.3677 15.5787 20.7906 15.5787 20.0786C15.5787 19.3666 15.0013 18.7896 14.2896 18.7896Z" fill="#295C7A"/>
<path d="M14.2896 23.9463H6.59619C5.88419 23.9463 5.30713 24.5233 5.30713 25.2354C5.30713 25.9474 5.88419 26.5244 6.59619 26.5244H14.2896C15.0013 26.5244 15.5787 25.9474 15.5787 25.2354C15.5787 24.5233 15.0013 23.9463 14.2896 23.9463Z" fill="#295C7A"/>
<path d="M14.2896 29.189H6.59619C5.88419 29.189 5.30713 29.7664 5.30713 30.478C5.30713 31.19 5.88419 31.7671 6.59619 31.7671H14.2896C15.0013 31.7671 15.5787 31.19 15.5787 30.478C15.5787 29.7664 15.0013 29.189 14.2896 29.189Z" fill="#295C7A"/>
<path d="M18.6187 11.0547H26.3121C27.0241 11.0547 27.6011 10.4776 27.6011 9.76562C27.6011 9.05362 27.0241 8.47656 26.3121 8.47656H18.6187C17.907 8.47656 17.3296 9.05362 17.3296 9.76562C17.3296 10.4776 17.907 11.0547 18.6187 11.0547Z" fill="#295C7A"/>
<path d="M18.6187 16.2114H26.3121C27.0241 16.2114 27.6011 15.6344 27.6011 14.9224C27.6011 14.2104 27.0241 13.6333 26.3121 13.6333H18.6187C17.907 13.6333 17.3296 14.2104 17.3296 14.9224C17.3296 15.6344 17.907 16.2114 18.6187 16.2114Z" fill="#295C7A"/>
<path d="M23.6131 20.0786C23.6131 19.3666 23.036 18.7896 22.324 18.7896H18.6187C17.907 18.7896 17.3296 19.3666 17.3296 20.0786C17.3296 20.7906 17.907 21.3677 18.6187 21.3677H22.324C23.036 21.3677 23.6131 20.7906 23.6131 20.0786Z" fill="#295C7A"/>
<path d="M35.8248 29.7333C35.2696 29.2879 34.4586 29.3768 34.0127 29.9321L30.6927 34.0712L28.6373 32.582C28.0609 32.1641 27.2546 32.293 26.837 32.8694C26.4194 33.4461 26.5483 34.2521 27.1246 34.6697L30.1738 36.8789C30.402 37.0441 30.6666 37.1243 30.9294 37.1243C31.3077 37.1243 31.6817 36.9581 31.9355 36.6416L36.0239 31.5454C36.4694 30.9902 36.3804 30.1788 35.8248 29.7333Z" fill="#295C7A"/>
<path d="M39.0831 25.7762C37.404 24.0675 35.2465 22.9906 32.9087 22.6734V5.1915C32.9087 2.32904 30.5797 0 27.7172 0H5.19183C2.32904 0 0 2.32904 0 5.1915V35.0524C0 37.9152 2.32904 40.2443 5.1915 40.2443H23.3085C25.3472 42.6391 28.2785 44 31.4498 44C37.3529 44 42.1554 39.1942 42.1554 33.287C42.1554 30.4591 41.0644 27.7917 39.0831 25.7762V25.7762ZM2.57812 35.0524V5.1915C2.57812 3.7507 3.7507 2.57812 5.19183 2.57812H27.7172C29.1583 2.57812 30.3306 3.7507 30.3306 5.1915V22.6324C24.9514 23.1941 20.7442 27.7578 20.7442 33.287C20.7442 34.8195 21.0638 36.3012 21.6767 37.6658H5.19183C3.7507 37.6658 2.57812 36.4936 2.57812 35.0524ZM31.4498 41.4219C28.8753 41.4219 26.5087 40.2399 24.9561 38.1794C23.8873 36.7604 23.322 35.0689 23.322 33.287C23.322 28.8015 26.9683 25.1522 31.4498 25.1522C31.4921 25.1522 31.5347 25.1528 31.577 25.1535L31.5968 25.1538C33.7362 25.1918 35.7419 26.0545 37.2445 27.5833C38.7487 29.1137 39.5772 31.1396 39.5772 33.287C39.5772 37.7726 35.9313 41.4219 31.4498 41.4219V41.4219Z" fill="#295C7A"/>
</g>
<defs>
<clipPath id="clip0_1081_519">
<rect width="42.1953" height="44" fill="white"/>
</clipPath>
</defs>
</svg>
