<svg width="105" height="63" viewBox="0 0 105 63" fill="none" xmlns="http://www.w3.org/2000/svg">
<path d="M29.8872 22.9887C29.7706 26.6268 31.6044 28.2378 31.6497 29.261C31.6281 29.4692 31.5566 29.6693 31.441 29.8445C31.3255 30.0197 31.1693 30.165 30.9856 30.2681L28.912 31.7072C28.6437 31.8938 28.3274 32.0007 28 32.0156C27.9304 32.0124 26.6733 32.3096 24.6824 27.9021C23.4677 29.4055 21.9223 30.6133 20.1643 31.4332C18.4063 32.2531 16.4824 32.6633 14.54 32.6324C11.9027 32.7754 4.75553 31.1483 5.12326 23.6039C4.86569 17.4553 10.6408 13.6357 16.6135 13.9585C17.7636 13.9618 20.1125 14.018 24.2256 14.9656V12.4567C24.6613 8.20668 21.8443 4.90911 16.9666 5.40383C16.5778 5.40543 13.8239 5.32352 9.54083 7.02771C8.34855 7.57061 8.19628 7.48067 7.79939 7.48067C6.59902 7.48067 7.0931 4.03051 7.32313 3.59362C8.16712 2.56564 13.1322 0.646211 18.005 0.673517C21.2631 0.387814 24.5037 1.38483 27.0264 3.44906C28.0519 4.5864 28.8343 5.91801 29.3262 7.3635C29.8182 8.80898 30.0096 10.3383 29.8889 11.8592L29.8872 22.9887ZM15.8877 28.1912C21.1412 28.1157 23.3654 24.9836 23.8724 23.2971C24.2709 21.6828 24.2045 20.6613 24.2045 18.8961C22.638 18.5234 20.3831 18.117 17.796 18.1138C15.3418 17.9307 10.8595 19.0181 11.0344 23.2955C10.8335 25.9923 12.8358 28.339 15.8877 28.1912ZM43.5757 31.8936C42.3024 32.0092 41.7095 31.1129 41.5216 30.2279L33.4543 3.78155C33.2972 3.33502 33.1935 2.87403 33.1433 2.40341C33.1136 2.20939 33.1627 2.01158 33.28 1.85346C33.3972 1.69535 33.573 1.58985 33.7686 1.56015C33.8075 1.55372 33.4236 1.56015 37.373 1.56015C38.7953 1.4188 39.2586 2.5287 39.406 3.2258L45.1924 25.8462L50.5641 3.2258C50.65 2.70859 51.0404 1.44771 52.6376 1.58103H55.4175C55.769 1.55212 57.2172 1.50072 57.4715 3.24668L62.8854 26.1562L68.8581 3.24668C68.9358 2.89652 69.2987 1.42041 70.9122 1.58103H74.1067C74.2444 1.56015 75.1029 1.45093 74.9571 2.95916C74.8875 3.25631 75.5095 1.24694 66.412 30.2488C66.2257 31.1338 65.6312 32.0301 64.3579 31.9144H61.3302C59.558 32.0992 59.3037 30.3628 59.2761 30.1878L53.9044 8.1617L48.5943 30.1653C48.5684 30.3404 48.314 32.0767 46.5402 31.892H43.5757V31.8936ZM87.8778 32.7979C86.9252 32.7995 82.3829 32.7497 78.5858 30.8238C78.2076 30.665 77.8854 30.3984 77.6602 30.0579C77.4349 29.7173 77.3167 29.3181 77.3206 28.9108V27.1841C77.3206 25.8269 78.325 26.0758 78.751 26.2381C80.3775 26.8902 81.4207 27.3849 83.4181 27.78C89.3551 28.9895 91.9665 27.4106 92.6064 27.0605C94.7366 25.806 94.9051 22.9357 93.4568 21.4467C91.7591 20.0349 90.9492 19.9819 84.8501 18.0737C84.0985 17.8665 77.771 15.8876 77.7564 9.66352C77.6576 5.12756 81.8143 0.639785 89.0182 0.676728C91.0707 0.675122 96.5396 1.3401 98.0202 3.18564C98.2389 3.52134 98.3474 3.91647 98.3312 4.31642V5.9403C98.3312 6.65346 98.0688 7.01004 97.5423 7.01004C96.2933 6.87191 94.0773 5.2159 89.5787 5.28336C88.4626 5.22554 83.1168 5.42953 83.3565 9.29409C83.2869 12.3395 87.6672 13.4815 88.1677 13.6132C94.074 15.3752 96.0487 15.6676 98.3928 18.3644C101.169 21.9382 99.6725 26.1224 99.0975 27.2693C96.0066 33.291 88.0138 32.8011 87.8778 32.7979ZM94.3899 49.6407C83.0455 57.948 66.5772 62.3699 52.5162 62.3699C33.5435 62.494 15.2103 55.5768 1.12039 42.9781C0.0625718 42.032 0.995656 40.7358 2.28189 41.457C17.9118 50.322 35.6081 54.9799 53.6145 54.9685C67.0611 54.897 80.3611 52.1923 92.7505 47.0097C94.6588 46.2066 96.2771 48.2625 94.3899 49.6407ZM99.1185 44.2936C97.6671 42.4432 89.5155 43.4294 85.8658 43.8615C84.7659 43.9852 84.5796 43.0391 85.5758 42.3404C92.0669 37.8157 102.728 39.1119 103.952 40.633C105.175 42.1541 103.62 52.7455 97.5439 57.8051C96.6108 58.5873 95.7183 58.1745 96.133 57.1465C97.5002 53.7333 100.57 46.1455 99.1185 44.2936Z" fill="#737373"/>
</svg>
