<svg width="102" height="27" viewBox="0 0 102 27" fill="none" xmlns="http://www.w3.org/2000/svg">
<path d="M2.048 18.392V3.608L0.248 3.416V1.808H7.136V3.416L5.072 3.632L5.048 18.464L10.544 18.128L12.176 15.32L13.496 15.896L12.704 20H0.2V18.752L2.048 18.392ZM21.6896 6.488C23.2256 6.488 24.4176 6.944 25.2656 7.856C26.1296 8.768 26.5616 10.048 26.5616 11.696C26.5616 12.4 26.5056 13.064 26.3936 13.688H17.9216C17.9536 15.176 18.3296 16.336 19.0496 17.168C19.7856 18 20.8256 18.416 22.1696 18.416C22.7616 18.416 23.3936 18.352 24.0656 18.224C24.7376 18.08 25.2816 17.904 25.6976 17.696L26.2016 18.848C25.6896 19.296 24.9456 19.656 23.9696 19.928C22.9936 20.184 22.0256 20.312 21.0656 20.312C19.1136 20.296 17.6016 19.688 16.5296 18.488C15.4576 17.288 14.9216 15.656 14.9216 13.592C14.9216 12.232 15.2096 11.016 15.7856 9.944C16.3616 8.856 17.1616 8.008 18.1856 7.4C19.2096 6.792 20.3776 6.488 21.6896 6.488ZM21.1376 7.904C20.2576 7.904 19.5296 8.264 18.9536 8.984C18.3936 9.704 18.0576 10.744 17.9456 12.104H23.5616C23.5776 11.928 23.5856 11.664 23.5856 11.312C23.5856 10.128 23.3296 9.296 22.8176 8.816C22.4976 8.208 21.9376 7.904 21.1376 7.904ZM34.9943 6.44C36.4823 6.44 37.6743 6.768 38.5703 7.424C38.8903 6.912 39.6023 6.656 40.7063 6.656H41.9783V8.816H39.6503C39.9223 9.36 40.0583 10.008 40.0583 10.76C40.0583 11.768 39.8103 12.632 39.3143 13.352C38.8183 14.072 38.1543 14.616 37.3223 14.984C36.4903 15.336 35.5623 15.512 34.5383 15.512C33.7063 15.512 32.9303 15.4 32.2103 15.176C32.1143 15.432 32.0663 15.696 32.0663 15.968C32.0663 16.24 32.0663 16.392 32.0663 16.424C32.0663 16.872 32.1863 17.208 32.4263 17.432C32.6823 17.656 33.0823 17.776 33.6263 17.792C34.1543 17.824 35.1303 17.84 36.5543 17.84C38.4743 17.84 39.7863 18.168 40.4903 18.824C41.1943 19.48 41.5463 20.4 41.5463 21.584C41.5463 22.544 41.2583 23.368 40.6823 24.056C40.1063 24.76 39.3063 25.296 38.2823 25.664C37.2743 26.032 36.1143 26.216 34.8023 26.216C33.1223 26.216 31.7383 25.944 30.6503 25.4C29.5623 24.856 29.0183 23.968 29.0183 22.736C29.0183 22.08 29.2103 21.464 29.5943 20.888C29.9943 20.328 30.4663 19.888 31.0103 19.568C30.5943 19.424 30.2903 19.248 30.0983 19.04C29.9063 18.816 29.7863 18.592 29.7383 18.368C29.7063 18.128 29.6903 17.824 29.6903 17.456C29.6903 17.12 29.8343 16.68 30.1223 16.136C30.4103 15.576 30.7623 15.112 31.1783 14.744C29.8343 13.976 29.1623 12.784 29.1623 11.168C29.1623 10.128 29.4343 9.256 29.9783 8.552C30.5223 7.848 31.2343 7.32 32.1143 6.968C32.9943 6.616 33.9543 6.44 34.9943 6.44ZM34.5383 7.808C33.7863 7.808 33.1863 8.032 32.7383 8.48C32.2903 8.928 32.0663 9.616 32.0663 10.544C32.0663 11.584 32.2903 12.424 32.7383 13.064C33.1863 13.704 33.8903 14.024 34.8503 14.024C35.6983 14.024 36.3063 13.768 36.6743 13.256C37.0423 12.744 37.2263 11.992 37.2263 11C37.2263 8.872 36.3303 7.808 34.5383 7.808ZM32.2583 19.856C31.8903 20.384 31.7063 21.048 31.7063 21.848C31.7063 22.808 32.0423 23.52 32.7143 23.984C33.3863 24.464 34.2423 24.704 35.2823 24.704C36.4983 24.704 37.4183 24.512 38.0423 24.128C38.6823 23.744 39.0023 23.136 39.0023 22.304C39.0023 21.744 38.9143 21.296 38.7383 20.96C38.5623 20.624 38.2503 20.376 37.8023 20.216C37.3543 20.056 36.7143 19.976 35.8823 19.976L34.2023 19.952C33.3703 19.952 32.7223 19.92 32.2583 19.856ZM49.1489 6.608C50.7009 6.608 51.9009 6.952 52.7489 7.64C53.5969 8.328 54.0209 9.48 54.0209 11.096V18.776H55.5089V19.736C55.2209 19.912 54.8449 20.048 54.3809 20.144C53.9169 20.256 53.4609 20.312 53.0129 20.312C52.4369 20.312 52.0209 20.2 51.7649 19.976C51.5089 19.736 51.3729 19.352 51.3569 18.824C50.4769 19.816 49.2369 20.312 47.6369 20.312C46.8209 20.312 46.0929 20.16 45.4529 19.856C44.8129 19.536 44.3169 19.096 43.9649 18.536C43.6129 17.976 43.4369 17.344 43.4369 16.64C43.4369 15.584 43.8289 14.712 44.6129 14.024C45.3969 13.336 46.3729 12.84 47.5409 12.536C48.7089 12.216 49.8849 12.056 51.0689 12.056V11.336C51.0689 10.248 50.8209 9.488 50.3249 9.056C49.8289 8.624 49.0929 8.408 48.1169 8.408C47.5889 8.408 46.9889 8.496 46.3169 8.672C45.6449 8.848 45.0609 9.072 44.5649 9.344L44.0129 8.024C44.5569 7.576 45.3329 7.232 46.3409 6.992C47.3649 6.736 48.3009 6.608 49.1489 6.608ZM51.0689 13.496C49.8689 13.496 48.7889 13.712 47.8289 14.144C46.8849 14.576 46.4129 15.264 46.4129 16.208C46.4129 17.76 47.2369 18.536 48.8849 18.536C49.2689 18.536 49.6609 18.456 50.0609 18.296C50.4769 18.136 50.8049 17.944 51.0449 17.72L51.0689 13.496ZM58.9988 18.512V3.224L57.2468 2.72V1.448L61.3988 0.943999L61.9508 1.184V18.488L64.0388 18.776V20H57.2228V18.776L58.9988 18.512ZM68.8831 0.343998C69.4751 0.343998 69.9231 0.503999 70.2271 0.823999C70.5471 1.128 70.7071 1.544 70.7071 2.072C70.7071 2.664 70.4911 3.152 70.0591 3.536C69.6271 3.92 69.1231 4.112 68.5471 4.112C68.0511 4.112 67.6191 3.952 67.2511 3.632C66.8991 3.312 66.7231 2.896 66.7231 2.384C66.7231 1.824 66.9471 1.344 67.3951 0.943999C67.8431 0.543999 68.3391 0.343998 68.8831 0.343998ZM70.4431 6.848V18.512L72.2671 18.776V20H65.7151V18.776L67.5631 18.512V9.752L65.9791 8.6V7.736L69.7471 6.608L70.4431 6.848ZM85.8731 1.232V18.776H87.4811V19.808C87.1931 19.968 86.7851 20.104 86.2571 20.216C85.7291 20.328 85.1851 20.384 84.6251 20.384C84.1131 20.384 83.7451 20.288 83.5211 20.096C83.2971 19.904 83.1531 19.568 83.0891 19.088C82.7371 19.408 82.2091 19.696 81.5051 19.952C80.8171 20.192 80.0571 20.312 79.2251 20.312C78.2491 20.312 77.3611 20.048 76.5611 19.52C75.7611 18.992 75.1211 18.232 74.6411 17.24C74.1771 16.232 73.9451 15.04 73.9451 13.664C73.9451 12.288 74.2571 11.056 74.8811 9.968C75.5211 8.88 76.3771 8.032 77.4491 7.424C78.5371 6.8 79.7291 6.488 81.0251 6.488C81.7451 6.488 82.3771 6.568 82.9211 6.728V3.224L80.3771 2.72V1.448L85.2491 0.943999L85.8731 1.232ZM80.7131 7.88C80.0731 7.88 79.4651 8.08 78.8891 8.48C78.3131 8.88 77.8411 9.472 77.4731 10.256C77.1211 11.04 76.9451 11.992 76.9451 13.112C76.9451 14.2 77.0971 15.16 77.4011 15.992C77.7051 16.824 78.1211 17.464 78.6491 17.912C79.1931 18.36 79.8011 18.584 80.4731 18.584C80.9531 18.584 81.4091 18.52 81.8411 18.392C82.2891 18.264 82.6571 18.08 82.9451 17.84V8.624C82.3851 8.128 81.6411 7.88 80.7131 7.88ZM96.1412 6.488C97.6772 6.488 98.8692 6.944 99.7172 7.856C100.581 8.768 101.013 10.048 101.013 11.696C101.013 12.4 100.957 13.064 100.845 13.688H92.3732C92.4052 15.176 92.7812 16.336 93.5012 17.168C94.2372 18 95.2772 18.416 96.6212 18.416C97.2132 18.416 97.8452 18.352 98.5172 18.224C99.1892 18.08 99.7332 17.904 100.149 17.696L100.653 18.848C100.141 19.296 99.3972 19.656 98.4212 19.928C97.4452 20.184 96.4772 20.312 95.5172 20.312C93.5652 20.296 92.0532 19.688 90.9812 18.488C89.9092 17.288 89.3732 15.656 89.3732 13.592C89.3732 12.232 89.6612 11.016 90.2372 9.944C90.8132 8.856 91.6132 8.008 92.6372 7.4C93.6612 6.792 94.8292 6.488 96.1412 6.488ZM95.5892 7.904C94.7092 7.904 93.9812 8.264 93.4052 8.984C92.8452 9.704 92.5092 10.744 92.3972 12.104H98.0132C98.0292 11.928 98.0372 11.664 98.0372 11.312C98.0372 10.128 97.7812 9.296 97.2692 8.816C96.9492 8.208 96.3892 7.904 95.5892 7.904Z" fill="#252B42"/>
</svg>
