<svg width="103" height="43" viewBox="0 0 103 43" fill="none" xmlns="http://www.w3.org/2000/svg">
<path d="M26.5557 3.79318L19.5871 5.25682L19.5549 27.9114C19.5549 32.0955 22.7415 34.8 26.9741 34.8C29.3238 34.8 31.0458 34.3705 31.9954 33.8614V28.4841C31.078 28.85 26.5718 30.1546 26.5718 25.9864V15.9318H31.9954V9.91818H26.5718L26.5557 3.79318ZM40.8952 12.0023L40.4607 9.91818H34.2807V34.2909H41.4102V17.8886C43.1001 15.6932 45.9487 16.1227 46.866 16.4091V9.91818C45.9004 9.58409 42.569 8.96364 40.8952 12.0023ZM55.7498 0.5L48.5719 2.01136V7.77045L55.7498 6.25909V0.5ZM7.22709 17.0932C7.22709 15.9955 8.16053 15.5659 9.65725 15.55C11.8299 15.55 14.598 16.2023 16.7707 17.3636V10.7136C14.4049 9.79091 12.0391 9.425 9.67334 9.425C3.87959 9.425 0.0170898 12.4159 0.0170898 17.4114C0.0170898 25.2386 10.8804 23.9659 10.8804 27.3386C10.8804 28.6432 9.73772 29.0727 8.14443 29.0727C5.77865 29.0727 2.72084 28.1023 0.322871 26.8136V33.1773C2.97834 34.3068 5.666 34.7841 8.12834 34.7841C14.0669 34.7841 18.1547 32.2705 18.1547 27.1796C18.1547 18.7636 7.22709 20.275 7.22709 17.0932ZM103.001 22.3909C103.001 15.1523 99.4604 9.44091 92.6688 9.44091C85.8773 9.44091 81.7412 15.1523 81.7412 22.3432C81.7412 30.8545 86.6176 34.7841 93.5701 34.7841C96.9819 34.7841 99.5408 34.0205 101.488 32.9545V27.6409C99.5408 28.6114 97.3038 29.2 94.4713 29.2C91.6871 29.2 89.2409 28.2295 88.919 24.9205H102.904C102.937 24.5545 103.001 23.075 103.001 22.3909ZM88.8546 19.7182C88.8546 16.5364 90.8341 15.2 92.6205 15.2C94.3748 15.2 96.2416 16.5364 96.2416 19.7182H88.8546ZM70.6848 9.44091C67.8844 9.44091 66.0819 10.7455 65.0841 11.6523L64.714 9.90227H58.4213V42.4841L65.5669 40.9886L65.583 33.0023C66.613 33.75 68.1419 34.7841 70.6365 34.7841C75.7543 34.7841 80.4215 31.0932 80.4215 22.1205C80.4376 13.9114 75.706 9.44091 70.6848 9.44091ZM68.9788 28.9296C67.3051 28.9296 66.3073 28.325 65.6152 27.5932L65.5669 17.0932C66.3073 16.2818 67.3373 15.6932 68.9788 15.6932C71.586 15.6932 73.3885 18.5886 73.3885 22.2795C73.4046 26.0818 71.6343 28.9296 68.9788 28.9296ZM48.588 34.2909H55.7658V9.91818H48.588V34.2909Z" fill="#737373"/>
</svg>
